<svg width="102" height="75" viewBox="0 0 102 75" fill="none" xmlns="http://www.w3.org/2000/svg">
<g id="fa-brands-3" clip-path="url(#clip0_504_9081)">
<path id="Vector" d="M102 0.145996C89.1225 8.8285 87.7519 15.1298 86.6362 17.0574C85.5684 19.0337 84.7716 26.8253 82.9228 30.5996C81.0581 34.4225 74.2847 37.4354 72.3881 38.6989C70.5234 39.9624 67.8778 44.8706 65.7103 49.0985C48.4819 48.3857 39.0309 55.3836 24.4003 64.2605C29.0859 62.6892 31.3012 61.5553 31.3012 61.5553C46.3144 55.7237 53.5022 50.4916 76.1016 53.5855C76.2769 53.5855 76.4044 53.6827 76.5478 53.7151C77.1694 54.0715 77.3925 54.8328 77.0419 55.4646L68.4516 70.9829C68.0531 71.7443 67.2084 72.1492 66.3637 71.971C46.155 68.1158 30.2016 74.7734 15.5391 74.984C3.84094 75.1622 0 69.5574 0 69.2983C0 69.1201 0.095625 69.0229 0.270938 69.0229C0.270938 69.0229 6.375 69.0229 16.7025 66.5445C28.4325 43.8177 38.8875 35.8641 50.2669 35.8641C50.2669 35.8641 61.6941 35.8641 64.7062 45.8911C68.34 39.4602 69.2166 37.9214 69.2166 37.9214C70.0612 36.3987 74.7947 25.416 82.9866 15.0164C91.1944 4.64923 97.3941 2.07364 102 0.145996Z" fill="#737373"/>
</g>
<defs>
<clipPath id="clip0_504_9081">
<rect width="102" height="75" fill="white"/>
</clipPath>
</defs>
</svg>
