<svg width="105" height="63" viewBox="0 0 105 63" fill="none" xmlns="http://www.w3.org/2000/svg">
<g id="fa-brands-5" clip-path="url(#clip0_504_9087)">
<path id="Vector" d="M29.8877 22.9887C29.7711 26.6268 31.6049 28.2378 31.6502 29.261C31.6286 29.4692 31.5571 29.6693 31.4415 29.8445C31.326 30.0197 31.1698 30.165 30.9861 30.2681L28.9125 31.7072C28.6442 31.8938 28.3279 32.0007 28.0005 32.0156C27.9308 32.0124 26.6738 32.3096 24.6829 27.9021C23.4682 29.4055 21.9228 30.6133 20.1648 31.4332C18.4068 32.2531 16.4829 32.6633 14.5404 32.6324C11.9032 32.7754 4.75602 31.1483 5.12375 23.6039C4.86618 17.4553 10.6413 13.6357 16.614 13.9585C17.7641 13.9618 20.113 14.018 24.2261 14.9656V12.4567C24.6618 8.20668 21.8447 4.90911 16.9671 5.40383C16.5783 5.40543 13.8244 5.32352 9.54132 7.02771C8.34904 7.57061 8.19677 7.48067 7.79988 7.48067C6.59951 7.48067 7.09359 4.03051 7.32362 3.59362C8.16761 2.56564 13.1327 0.646211 18.0055 0.673516C21.2636 0.387814 24.5042 1.38483 27.0269 3.44906C28.0524 4.58639 28.8347 5.91801 29.3267 7.3635C29.8187 8.80898 30.0101 10.3383 29.8894 11.8592L29.8877 22.9887ZM15.8882 28.1912C21.1417 28.1157 23.3659 24.9836 23.8729 23.2971C24.2714 21.6828 24.205 20.6613 24.205 18.8961C22.6385 18.5234 20.3836 18.117 17.7965 18.1138C15.3423 17.9307 10.8599 19.0181 11.0349 23.2955C10.834 25.9923 12.8363 28.339 15.8882 28.1912ZM43.5762 31.8936C42.3029 32.0092 41.71 31.1129 41.5221 30.2279L33.4548 3.78155C33.2977 3.33502 33.194 2.87403 33.1438 2.40341C33.114 2.20939 33.1632 2.01158 33.2804 1.85346C33.3977 1.69534 33.5735 1.58985 33.7691 1.56015C33.808 1.55372 33.4241 1.56015 37.3735 1.56015C38.7958 1.4188 39.2591 2.5287 39.4065 3.2258L45.1929 25.8462L50.5646 3.2258C50.6505 2.70859 51.0409 1.44771 52.6381 1.58103H55.418C55.7695 1.55212 57.2177 1.50072 57.472 3.24668L62.8859 26.1562L68.8586 3.24668C68.9363 2.89652 69.2992 1.42041 70.9127 1.58103H74.1072C74.2449 1.56015 75.1034 1.45092 74.9576 2.95916C74.888 3.25631 75.51 1.24694 66.4125 30.2488C66.2262 31.1338 65.6317 32.0301 64.3584 31.9144H61.3307C59.5585 32.0992 59.3042 30.3628 59.2766 30.1878L53.9049 8.1617L48.5948 30.1653C48.5689 30.3404 48.3145 32.0767 46.5407 31.892H43.5762V31.8936ZM87.8783 32.7979C86.9257 32.7995 82.3834 32.7497 78.5863 30.8238C78.2081 30.665 77.8859 30.3984 77.6606 30.0579C77.4354 29.7173 77.3172 29.3181 77.3211 28.9108V27.1841C77.3211 25.8269 78.3255 26.0758 78.7515 26.2381C80.3779 26.8902 81.4212 27.3849 83.4186 27.78C89.3556 28.9895 91.967 27.4106 92.6069 27.0605C94.7371 25.806 94.9056 22.9357 93.4573 21.4467C91.7596 20.0349 90.9497 19.9819 84.8506 18.0737C84.099 17.8665 77.7715 15.8876 77.7569 9.66352C77.6581 5.12756 81.8148 0.639785 89.0187 0.676728C91.0712 0.675122 96.5401 1.3401 98.0207 3.18564C98.2394 3.52134 98.3479 3.91647 98.3317 4.31642V5.9403C98.3317 6.65346 98.0693 7.01004 97.5428 7.01004C96.2938 6.87191 94.0778 5.2159 89.5792 5.28336C88.4631 5.22554 83.1173 5.42953 83.357 9.29408C83.2874 12.3395 87.6677 13.4815 88.1682 13.6132C94.0745 15.3752 96.0492 15.6676 98.3933 18.3644C101.17 21.9382 99.673 26.1224 99.098 27.2693C96.0071 33.291 88.0143 32.8011 87.8783 32.7979ZM94.3904 49.6407C83.046 57.948 66.5777 62.3699 52.5166 62.3699C33.544 62.494 15.2108 55.5768 1.12088 42.9781C0.06306 42.032 0.996144 40.7358 2.28237 41.457C17.9123 50.322 35.6086 54.9799 53.615 54.9685C67.0616 54.897 80.3616 52.1923 92.751 47.0097C94.6593 46.2066 96.2776 48.2625 94.3904 49.6407ZM99.119 44.2936C97.6675 42.4432 89.516 43.4294 85.8663 43.8615C84.7664 43.9852 84.5801 43.0391 85.5763 42.3404C92.0674 37.8157 102.728 39.1119 103.953 40.633C105.176 42.1541 103.621 52.7455 97.5444 57.8051C96.6113 58.5873 95.7188 58.1745 96.1335 57.1465C97.5007 53.7333 100.57 46.1455 99.119 44.2936Z" fill="#737373"/>
</g>
<defs>
<clipPath id="clip0_504_9087">
<rect width="104" height="62" fill="white" transform="translate(0.5 0.5)"/>
</clipPath>
</defs>
</svg>
