<svg width="84" height="59" viewBox="0 0 84 59" fill="none" xmlns="http://www.w3.org/2000/svg">
<g id="fa-brands-2" clip-path="url(#clip0_504_9078)">
<path id="Vector" d="M0.5 0.995479H13.1121V35.0101C13.1121 40.4049 15.5437 43.6156 17.5215 44.9521C15.4627 46.7612 9.22148 48.3585 4.52031 44.4958C1.76445 42.214 0.5 38.4165 0.5 34.8797V0.995479ZM79.2689 29.2731V25.6875H83.1272V13.1703H78.8961C77.2588 5.62421 70.5961 0.0175781 62.6365 0.0175781C53.4611 0.0175781 45.9879 7.51482 45.9879 16.756V45.9626C48.5816 46.3375 51.7266 45.9137 54.3689 43.6808C57.141 41.3991 58.3893 37.6179 58.3893 34.0648V32.9728H64.6791V20.4557H58.3893V16.6582C58.3893 11.019 66.8514 11.019 66.8514 16.6582V29.2242C66.8514 38.4491 74.3084 45.9626 83.5 45.9626V33.4944C81.1494 33.4944 79.2689 31.5875 79.2689 29.2731ZM31.5602 13.1377V31.5549C31.5602 34.0648 27.702 34.0648 27.702 31.5549V13.1377H15.252V34.7656C15.252 38.6446 16.5488 43.5667 22.5469 45.1803C28.5449 46.7775 31.9816 43.4527 31.9816 43.4527C31.6412 45.6366 29.6311 47.2502 26.324 47.5761C23.8113 47.8369 20.6178 46.9894 19.0291 46.3049V57.7626C23.098 58.985 27.3777 59.3598 31.6088 58.5286C39.2441 57.0455 44.0588 50.6402 44.0588 42.0999V13.0563H31.5602V13.1377Z" fill="#737373"/>
</g>
<defs>
<clipPath id="clip0_504_9078">
<rect width="83" height="59" fill="white" transform="translate(0.5)"/>
</clipPath>
</defs>
</svg>
