<svg width="77" height="73" viewBox="0 0 77 73" fill="none" xmlns="http://www.w3.org/2000/svg">
<g id="fa-brands-6" clip-path="url(#clip0_504_9090)">
<path id="Vector" d="M67.9269 28.1617C65.532 28.1617 63.4244 29.1559 61.8757 30.7113C56.1757 26.7505 48.4958 24.2009 39.9858 23.9283L44.4085 3.9158L58.4908 7.09085C58.4908 10.5546 61.3009 13.3768 64.7496 13.3768C68.2622 13.3768 71.0883 10.4744 71.0883 7.01068C71.0883 3.54698 68.2782 0.644531 64.7496 0.644531C62.2908 0.644531 60.1673 2.13585 59.1135 4.17237L43.5622 0.708674C42.7799 0.500211 42.0135 1.06146 41.8059 1.8472L36.9522 23.9122C28.5059 24.265 20.9059 26.8147 15.19 30.7755C13.6412 29.1559 11.4538 28.1617 9.05888 28.1617C0.181566 28.1617 -2.72432 40.1243 5.40258 44.2133C5.11518 45.4802 4.98745 46.8272 4.98745 48.1741C4.98745 61.612 20.0597 72.5002 38.5648 72.5002C57.1496 72.5002 72.2219 61.612 72.2219 48.1741C72.2219 46.8272 72.0782 45.416 71.7269 44.1492C79.6942 40.0441 76.7564 28.1617 67.9269 28.1617ZM18.2874 45.0632C18.2874 41.5354 21.0975 38.6971 24.6261 38.6971C28.0748 38.6971 30.8849 41.5194 30.8849 45.0632C30.8849 48.5269 28.0748 51.3492 24.6261 51.3492C21.1135 51.3652 18.2874 48.5269 18.2874 45.0632ZM52.5034 60.0565C46.6917 65.8935 30.2942 65.8935 24.4824 60.0565C23.8438 59.4953 23.8438 58.5011 24.4824 57.8597C25.0412 57.2984 26.0311 57.2984 26.59 57.8597C31.0286 62.4298 45.7496 62.51 50.3799 57.8597C50.9387 57.2984 51.9286 57.2984 52.4874 57.8597C53.1421 58.5011 53.1421 59.4953 52.5034 60.0565ZM52.3757 51.3652C48.9269 51.3652 46.1169 48.543 46.1169 45.0793C46.1169 41.5514 48.9269 38.7131 52.3757 38.7131C55.8883 38.7131 58.7143 41.5354 58.7143 45.0793C58.6984 48.5269 55.8883 51.3652 52.3757 51.3652Z" fill="#737373"/>
</g>
<defs>
<clipPath id="clip0_504_9090">
<rect width="76" height="72" fill="white" transform="translate(0.5 0.5)"/>
</clipPath>
</defs>
</svg>
