<svg width="103" height="43" viewBox="0 0 103 43" fill="none" xmlns="http://www.w3.org/2000/svg">
<g id="fa-brands-4" clip-path="url(#clip0_504_9084)">
<path id="Vector" d="M26.5562 3.79318L19.5876 5.25682L19.5554 27.9114C19.5554 32.0955 22.742 34.8 26.9746 34.8C29.3243 34.8 31.0463 34.3705 31.9959 33.8614V28.4841C31.0785 28.85 26.5723 30.1546 26.5723 25.9864V15.9318H31.9959V9.91818H26.5723L26.5562 3.79318ZM40.8957 12.0023L40.4612 9.91818H34.2812V34.2909H41.4107V17.8886C43.1005 15.6932 45.9491 16.1227 46.8665 16.4091V9.91818C45.9009 9.58409 42.5695 8.96364 40.8957 12.0023ZM55.7502 0.5L48.5724 2.01136V7.77045L55.7502 6.25909V0.5ZM7.22758 17.0932C7.22758 15.9955 8.16102 15.5659 9.65773 15.55C11.8304 15.55 14.5985 16.2023 16.7712 17.3636V10.7136C14.4054 9.79091 12.0396 9.425 9.67383 9.425C3.88008 9.425 0.0175781 12.4159 0.0175781 17.4114C0.0175781 25.2386 10.8809 23.9659 10.8809 27.3386C10.8809 28.6432 9.7382 29.0727 8.14492 29.0727C5.77914 29.0727 2.72133 28.1023 0.323359 26.8136V33.1773C2.97883 34.3068 5.66648 34.7841 8.12883 34.7841C14.0674 34.7841 18.1552 32.2705 18.1552 27.1795C18.1552 18.7636 7.22758 20.275 7.22758 17.0932ZM103.001 22.3909C103.001 15.1523 99.4609 9.44091 92.6693 9.44091C85.8777 9.44091 81.7416 15.1523 81.7416 22.3432C81.7416 30.8545 86.6181 34.7841 93.5706 34.7841C96.9824 34.7841 99.5413 34.0205 101.489 32.9545V27.6409C99.5413 28.6114 97.3043 29.2 94.4718 29.2C91.6876 29.2 89.2413 28.2295 88.9195 24.9205H102.905C102.937 24.5545 103.001 23.075 103.001 22.3909ZM88.8551 19.7182C88.8551 16.5364 90.8346 15.2 92.621 15.2C94.3752 15.2 96.2421 16.5364 96.2421 19.7182H88.8551ZM70.6852 9.44091C67.8849 9.44091 66.0824 10.7455 65.0846 11.6523L64.7145 9.90227H58.4218V42.4841L65.5674 40.9886L65.5835 33.0023C66.6135 33.75 68.1424 34.7841 70.637 34.7841C75.7548 34.7841 80.422 31.0932 80.422 22.1205C80.438 13.9114 75.7065 9.44091 70.6852 9.44091ZM68.9793 28.9296C67.3055 28.9296 66.3077 28.325 65.6157 27.5932L65.5674 17.0932C66.3077 16.2818 67.3377 15.6932 68.9793 15.6932C71.5865 15.6932 73.389 18.5886 73.389 22.2795C73.4051 26.0818 71.6348 28.9296 68.9793 28.9296ZM48.5885 34.2909H55.7663V9.91818H48.5885V34.2909Z" fill="#737373"/>
</g>
<defs>
<clipPath id="clip0_504_9084">
<rect width="103" height="42" fill="white" transform="translate(0 0.5)"/>
</clipPath>
</defs>
</svg>
