<svg width="24" height="26" viewBox="0 0 24 26" fill="none" xmlns="http://www.w3.org/2000/svg">
<g clip-path="url(#clip0_504_9152)">
<path fill-rule="evenodd" clip-rule="evenodd" d="M-0.91875 5.71715C-0.75492 4.98089 -0.352185 4.32351 0.223498 3.85267C0.79918 3.38183 1.51369 3.12544 2.25 3.12549H21.75C22.4863 3.12544 23.2008 3.38183 23.7765 3.85267C24.3522 4.32351 24.7549 4.98089 24.9187 5.71715L12 13.8155L-0.91875 5.71715ZM-1 7.62049V19.4605L8.42988 13.5305L-1 7.62049ZM9.98663 14.5088L-0.689625 21.2205C-0.425844 21.791 -0.00951922 22.2729 0.510895 22.6101C1.03131 22.9474 1.63441 23.1261 2.25 23.1255H21.75C22.3655 23.1256 22.9684 22.9465 23.4885 22.609C24.0086 22.2714 24.4246 21.7894 24.688 21.2188L14.0118 14.5072L12 15.7688L9.98663 14.5072V14.5088ZM15.5701 13.5322L25 19.4605V7.62049L15.5701 13.5305V13.5322Z" fill="#96BB7C"/>
</g>
<defs>
<clipPath id="clip0_504_9152">
<rect width="24" height="26" fill="white"/>
</clipPath>
</defs>
</svg>
