<svg width="24" height="24" viewBox="0 0 24 24" fill="none" xmlns="http://www.w3.org/2000/svg">
<path d="M18.8478 12.3517C18.7365 12.2402 18.6043 12.1517 18.4587 12.0913C18.3131 12.031 18.157 11.9999 17.9995 11.9999C17.8419 11.9999 17.6858 12.031 17.5402 12.0913C17.3946 12.1517 17.2624 12.2402 17.1511 12.3517L15.2383 14.2645C14.3515 14.0005 12.6967 13.4005 11.6479 12.3517C10.5991 11.3029 9.99913 9.64814 9.73513 8.76135L11.6479 6.84857C11.7594 6.73723 11.8479 6.60498 11.9083 6.45941C11.9687 6.31383 11.9998 6.15778 11.9998 6.00018C11.9998 5.84258 11.9687 5.68653 11.9083 5.54095C11.8479 5.39538 11.7594 5.26313 11.6479 5.15179L6.84796 0.351838C6.73662 0.240304 6.60438 0.151819 6.4588 0.0914472C6.31322 0.031075 6.15717 0 5.99957 0C5.84197 0 5.68592 0.031075 5.54034 0.0914472C5.39477 0.151819 5.26252 0.240304 5.15118 0.351838L1.89681 3.60621C1.44082 4.0622 1.18402 4.68859 1.19362 5.32819C1.22122 7.03697 1.67361 12.9721 6.35117 17.6497C11.0287 22.3272 16.9639 22.7784 18.6738 22.8072H18.7074C19.341 22.8072 19.9398 22.5576 20.3934 22.104L23.6478 18.8497C23.7593 18.7383 23.8478 18.6061 23.9082 18.4605C23.9686 18.3149 23.9996 18.1589 23.9996 18.0013C23.9996 17.8437 23.9686 17.6876 23.9082 17.542C23.8478 17.3965 23.7593 17.2642 23.6478 17.1529L18.8478 12.3517ZM18.6954 20.406C17.1979 20.3808 12.0739 19.9788 8.04795 15.9517C4.00879 11.9125 3.61759 6.77057 3.5936 5.30299L5.99957 2.89701L9.10274 6.00018L7.55116 7.55177C7.41011 7.6927 7.30641 7.86657 7.24942 8.05764C7.19243 8.24872 7.18396 8.45098 7.22476 8.64615C7.25356 8.78415 7.95795 12.0565 9.94993 14.0485C11.9419 16.0405 15.2143 16.7449 15.3523 16.7737C15.5473 16.8156 15.7498 16.8078 15.941 16.751C16.1323 16.6942 16.3062 16.5901 16.4467 16.4485L17.9995 14.8969L21.1026 18.0001L18.6954 20.406Z" fill="#96BB7C"/>
</svg>
