<svg width="23" height="23" viewBox="0 0 23 23" fill="none" xmlns="http://www.w3.org/2000/svg">
<path d="M20.6242 8.41939C20.5666 8.24958 20.4604 8.10037 20.319 7.99018C20.1775 7.87999 20.0068 7.81365 19.8281 7.79934L14.5989 7.38383L12.3361 2.37482C12.264 2.21349 12.1468 2.07646 11.9986 1.98028C11.8504 1.88409 11.6775 1.83286 11.5008 1.83276C11.3241 1.83267 11.1511 1.88371 11.0028 1.97973C10.8545 2.07575 10.7371 2.21265 10.6649 2.3739L8.40207 7.38383L3.17292 7.79934C2.99723 7.81326 2.82927 7.8775 2.68913 7.98438C2.54899 8.09125 2.44261 8.23624 2.38272 8.40199C2.32282 8.56774 2.31195 8.74724 2.3514 8.91901C2.39084 9.09078 2.47894 9.24755 2.60515 9.37056L6.46946 13.1376L5.10278 19.0556C5.06128 19.2348 5.07458 19.4222 5.14096 19.5937C5.20733 19.7652 5.32371 19.9128 5.475 20.0173C5.62628 20.1218 5.80549 20.1785 5.98937 20.1799C6.17324 20.1813 6.35329 20.1274 6.50615 20.0252L11.5005 16.6956L16.4948 20.0252C16.6511 20.1289 16.8353 20.1823 17.0228 20.1782C17.2103 20.1741 17.3921 20.1126 17.5436 20.0022C17.6951 19.8917 17.8092 19.7374 17.8705 19.5602C17.9317 19.3829 17.9372 19.1912 17.8863 19.0107L16.2087 13.1404L20.3692 9.39625C20.6416 9.15043 20.7416 8.76702 20.6242 8.41939Z" fill="#F3CD03"/>
</svg>
